<?xml version="1.0" encoding="utf-8"?>
<!-- Generator: Adobe Illustrator 21.0.2, SVG Export Plug-In . SVG Version: 6.00 Build 0)  -->
<svg version="1.1" id="Laag_1" xmlns="http://www.w3.org/2000/svg" xmlns:xlink="http://www.w3.org/1999/xlink" x="0px" y="0px"
	 viewBox="0 0 278.7 95.4" style="enable-background:new 0 0 278.7 95.4;" xml:space="preserve">
<style type="text/css">
	.st0{fill:#FFFFFF;}
</style>
<path class="st0" d="M9.1,47.9c0,15,12.2,27.2,27.2,27.2c15,0,27.2-12.2,27.2-27.2S51.3,20.7,36.3,20.7C21.2,20.7,9.1,32.9,9.1,47.9
	z M58.9,47.6c0,12.5-10.1,22.7-22.7,22.7S13.6,60.1,13.6,47.6S23.7,25,36.3,25S58.9,35.1,58.9,47.6z"/>
<path class="st0" d="M18.1,47.9c0,10,8.1,18.1,18.1,18.1c10,0,18.1-8.1,18.1-18.1s-8.1-18.1-18.1-18.1
	C26.2,29.7,18.1,37.9,18.1,47.9z M49.8,47.9c0,7.5-6.1,13.6-13.6,13.6s-13.6-6.1-13.6-13.6s6.1-13.6,13.6-13.6S49.8,40.4,49.8,47.9z
	"/>
<path class="st0" d="M0,47.9c0,20,16.2,36.3,36.3,36.3h24.7c0,0,11.6,0.3,11.6-11.3V47.9c0-20-16.2-36.3-36.3-36.3S0,27.9,0,47.9z
	 M68,47.9c0,17.5-14.2,31.7-31.7,31.7S4.5,65.4,4.5,47.9s14.2-31.7,31.7-31.7S68,30.4,68,47.9z"/>
<g>
	<path class="st0" d="M99,93.3V29.9c0-1.3,0.8-1.9,2.3-1.9c0.6,0,1.2,0.2,1.6,0.5c0.4,0.3,0.7,0.8,0.7,1.4v4.8
		c2.7-4.8,7-7.2,12.8-7.2c4.7,0,8.7,1.7,12.1,5.1c3.4,3.4,5.1,7.5,5.1,12.3v11.1c0,4.6-1.7,8.7-5.1,12.3c-3.4,3.6-7.4,5.3-11.9,5.3
		c-2.8,0-5.4-0.7-7.7-2.1c-2.4-1.4-4.1-3.1-5.1-5.1v27c0,0.5-0.2,1-0.7,1.4c-0.5,0.4-1,0.7-1.7,0.7s-1.2-0.2-1.6-0.6
		C99.2,94.3,99,93.9,99,93.3z M103.7,59.2c0,1.8,1.3,4,3.8,6.4c2.5,2.4,5.4,3.6,8.7,3.6c3.4,0,6.3-1.3,8.9-4
		c2.5-2.7,3.8-5.8,3.8-9.2V44.9c0-3.4-1.3-6.4-3.9-9.1c-2.6-2.7-5.6-4-9-4c-3.2,0-6.1,1.2-8.6,3.6c-2.5,2.4-3.7,5.5-3.7,9.5V59.2z"
		/>
	<path class="st0" d="M143.8,56.1V30c0-0.5,0.2-1,0.7-1.4c0.5-0.4,1-0.6,1.7-0.6c0.6,0,1.1,0.2,1.6,0.6c0.5,0.4,0.7,0.9,0.7,1.4
		v26.1c0,3.4,1.3,6.5,3.8,9.1c2.5,2.6,5.5,4,9,4c3.5,0,6.5-1.3,9-4c2.5-2.6,3.8-5.7,3.8-9.1V29.9c0-0.5,0.2-1,0.7-1.3
		c0.5-0.4,1-0.6,1.7-0.6c0.6,0,1.2,0.2,1.6,0.6c0.4,0.4,0.7,0.8,0.7,1.3v26.2c0,4.7-1.7,8.8-5.1,12.2c-3.4,3.5-7.5,5.2-12.3,5.2
		c-4.8,0-8.9-1.7-12.3-5.2C145.5,64.8,143.8,60.8,143.8,56.1z"/>
	<path class="st0" d="M191.5,70.9V2c0-0.6,0.2-1,0.7-1.4c0.4-0.4,1-0.6,1.6-0.6c0.7,0,1.3,0.2,1.7,0.6c0.4,0.4,0.7,0.9,0.7,1.4v68.9
		c0,0.5-0.2,1-0.7,1.4c-0.5,0.4-1,0.7-1.7,0.7c-0.6,0-1.2-0.2-1.6-0.6C191.7,72,191.5,71.5,191.5,70.9z"/>
	<path class="st0" d="M206.7,67.1c0-0.5,0.2-1,0.5-1.5c0.3-0.5,0.7-0.7,1.2-0.7c0.4-0.1,0.9,0.2,1.5,0.7l2.2,1.5
		c0.8,0.5,1.9,1,3.5,1.5c1.6,0.5,3.4,0.8,5.3,0.8c3.6,0,6.2-0.7,7.9-2c1.7-1.4,2.6-3.1,2.6-5.3c0-2.6-0.8-4.6-2.4-6
		c-1.6-1.5-3.6-2.6-5.9-3.3c-2.3-0.7-4.6-1.4-7-2.1c-2.4-0.7-4.4-1.9-6-3.6c-1.6-1.7-2.4-4-2.4-7c0-3.3,1.2-6.2,3.7-8.8
		c2.4-2.5,6.1-3.8,10.8-3.8c3,0,5.8,0.5,8.3,1.4c2.6,0.9,3.9,1.9,3.9,2.9c0,0.5-0.2,1-0.7,1.6c-0.4,0.6-0.9,0.9-1.4,0.9
		c-0.1,0-1.2-0.4-3.3-1.3c-2.2-0.9-4.4-1.3-6.7-1.3c-3.4,0-6,0.9-7.7,2.6c-1.7,1.7-2.5,3.6-2.5,5.7c0,2.2,0.8,3.8,2.4,5
		c1.6,1.2,3.6,2.2,5.9,2.9c2.3,0.7,4.7,1.4,7.1,2.1c2.4,0.7,4.4,2,6,4c1.6,1.9,2.4,4.5,2.4,7.8c0,3.7-1.3,6.6-3.9,8.7
		c-2.6,2.1-6.3,3.1-11,3.1c-4.1,0-7.5-0.7-10.2-2.1C208.1,70,206.7,68.5,206.7,67.1z"/>
	<path class="st0" d="M243.9,55.9V44.6c0-4.7,1.7-8.7,5.1-12.1c3.4-3.4,7.6-5.1,12.4-5.1c4.7,0,8.7,1.7,12.1,5
		c3.4,3.3,5.1,7.4,5.1,12.3c0,1.7-0.2,3.1-0.6,4.1c-0.4,1-1.1,1.8-1.9,2.2c-0.9,0.4-1.7,0.7-2.4,0.8C273,52,272,52,270.6,52h-22v4
		c0,4,1.4,7.2,4.3,9.6c2.9,2.4,6.5,3.6,11.1,3.6c2.3,0,4.2-0.3,5.8-1c1.6-0.6,2.8-1.3,3.6-1.9c0.8-0.6,1.5-1,1.9-1
		c0.6,0,1.1,0.3,1.5,0.8c0.4,0.5,0.7,1,0.7,1.5c0,1.2-1.3,2.5-3.9,3.8c-2.6,1.3-5.9,2-9.7,2c-5.8,0-10.6-1.6-14.3-4.9
		C245.8,65.5,243.9,61.2,243.9,55.9z M248.6,48.1h20.3c2.2,0,3.6-0.2,4.3-0.7c0.7-0.4,1-1.4,1-2.8c0-3.4-1.2-6.4-3.6-9.1
		c-2.4-2.7-5.5-4-9.1-4c-3.6,0-6.6,1.2-9.1,3.7c-2.5,2.5-3.8,5.4-3.8,8.9V48.1z"/>
</g>
</svg>
