<?xml version="1.0" encoding="utf-8"?>
<!-- Generator: Adobe Illustrator 21.0.2, SVG Export Plug-In . SVG Version: 6.00 Build 0)  -->
<svg version="1.1" id="Laag_1" xmlns="http://www.w3.org/2000/svg" xmlns:xlink="http://www.w3.org/1999/xlink" x="0px" y="0px"
	 viewBox="0 0 180 299.3" style="enable-background:new 0 0 180 299.3;" xml:space="preserve">
<style type="text/css">
	.st0{fill:#2AA7DF;}
</style>
<path class="st0" d="M90,22.5c-37.3,0-67.5,30.2-67.5,67.5s30.2,67.5,67.5,67.5s67.5-30.2,67.5-67.5S127.3,22.5,90,22.5z
	 M90.6,146.3c-31.1,0-56.3-25.2-56.3-56.3s25.2-56.2,56.3-56.2s56.3,25.2,56.3,56.2S121.7,146.3,90.6,146.3z"/>
<path class="st0" d="M90,45c-24.9,0-45,20.1-45,45c0,24.9,20.1,45,45,45s45-20.1,45-45C135,65.1,114.9,45,90,45z M90,123.8
	c-18.6,0-33.8-15.1-33.8-33.8S71.4,56.3,90,56.3s33.7,15.1,33.7,33.7S108.6,123.8,90,123.8z"/>
<path class="st0" d="M0,90c0,49.7,40.3,90,90,90h61.3c0,0,28.8,0.6,28.8-28.1V90c0-49.7-40.3-90-90-90S0,40.3,0,90z M168.8,90
	c0,43.5-35.3,78.8-78.8,78.8S11.3,133.5,11.3,90S46.5,11.3,90,11.3S168.8,46.5,168.8,90z"/>
<g>
	<path class="st0" d="M0,297.2v-63.4c0-1.3,0.8-1.9,2.3-1.9c0.6,0,1.2,0.2,1.6,0.5c0.4,0.3,0.7,0.8,0.7,1.4v4.8
		c2.7-4.8,7-7.2,12.8-7.2c4.7,0,8.7,1.7,12.1,5.1c3.4,3.4,5.1,7.5,5.1,12.3v11.1c0,4.6-1.7,8.7-5.1,12.3c-3.4,3.6-7.4,5.3-11.9,5.3
		c-2.8,0-5.4-0.7-7.7-2.1c-2.4-1.4-4.1-3.1-5.1-5.1v27c0,0.5-0.2,1-0.7,1.4c-0.5,0.4-1,0.7-1.7,0.7s-1.2-0.2-1.6-0.6
		S0,297.7,0,297.2z M4.7,263.1c0,1.8,1.3,4,3.8,6.4c2.5,2.4,5.4,3.6,8.7,3.6c3.4,0,6.3-1.3,8.9-4c2.5-2.7,3.8-5.8,3.8-9.2v-11.1
		c0-3.4-1.3-6.4-3.9-9.1c-2.6-2.7-5.6-4-9-4c-3.2,0-6.1,1.2-8.6,3.6c-2.5,2.4-3.7,5.5-3.7,9.5V263.1z"/>
	<path class="st0" d="M44.8,260v-26.1c0-0.5,0.2-1,0.7-1.4c0.5-0.4,1-0.6,1.7-0.6c0.6,0,1.1,0.2,1.6,0.6c0.5,0.4,0.7,0.9,0.7,1.4
		V260c0,3.4,1.3,6.5,3.8,9.1c2.5,2.6,5.5,4,9,4c3.5,0,6.5-1.3,9-4c2.5-2.6,3.8-5.7,3.8-9.1v-26.2c0-0.5,0.2-1,0.7-1.3
		c0.5-0.4,1-0.6,1.7-0.6s1.2,0.2,1.6,0.6c0.4,0.4,0.7,0.8,0.7,1.3V260c0,4.7-1.7,8.8-5.1,12.2c-3.4,3.5-7.5,5.2-12.3,5.2
		c-4.8,0-8.9-1.7-12.3-5.2C46.5,268.7,44.8,264.6,44.8,260z"/>
	<path class="st0" d="M92.5,274.8v-68.9c0-0.6,0.2-1,0.7-1.4c0.4-0.4,1-0.6,1.6-0.6c0.7,0,1.3,0.2,1.7,0.6c0.4,0.4,0.7,0.9,0.7,1.4
		v68.9c0,0.5-0.2,1-0.7,1.4c-0.5,0.4-1,0.7-1.7,0.7c-0.6,0-1.2-0.2-1.6-0.6C92.7,275.8,92.5,275.3,92.5,274.8z"/>
	<path class="st0" d="M107.7,271c0-0.5,0.2-1,0.5-1.5c0.3-0.5,0.7-0.7,1.2-0.7c0.4-0.1,0.9,0.2,1.5,0.7l2.2,1.5
		c0.8,0.5,1.9,1,3.5,1.5c1.6,0.5,3.4,0.8,5.3,0.8c3.6,0,6.2-0.7,7.9-2c1.7-1.4,2.6-3.1,2.6-5.3c0-2.6-0.8-4.6-2.4-6
		c-1.6-1.5-3.6-2.6-5.9-3.3c-2.3-0.7-4.6-1.4-7-2.1c-2.4-0.7-4.4-1.9-6-3.6c-1.6-1.7-2.4-4-2.4-7c0-3.3,1.2-6.2,3.7-8.8
		c2.4-2.5,6.1-3.8,10.8-3.8c3,0,5.8,0.5,8.3,1.4c2.6,0.9,3.9,1.9,3.9,2.9c0,0.5-0.2,1-0.7,1.6c-0.4,0.6-0.9,0.9-1.4,0.9
		c-0.1,0-1.2-0.4-3.3-1.3c-2.2-0.9-4.4-1.3-6.7-1.3c-3.4,0-6,0.9-7.7,2.6c-1.7,1.7-2.5,3.6-2.5,5.7c0,2.2,0.8,3.8,2.4,5
		c1.6,1.2,3.6,2.2,5.9,2.9c2.3,0.7,4.7,1.4,7.1,2.1c2.4,0.7,4.4,2,6,4c1.6,1.9,2.4,4.5,2.4,7.8c0,3.7-1.3,6.6-3.9,8.7
		c-2.6,2.1-6.3,3.1-11,3.1c-4.1,0-7.5-0.7-10.2-2.1C109.1,273.9,107.7,272.4,107.7,271z"/>
	<path class="st0" d="M144.9,259.8v-11.3c0-4.7,1.7-8.7,5.1-12.1c3.4-3.4,7.6-5.1,12.4-5.1c4.7,0,8.7,1.7,12.1,5
		c3.4,3.3,5.1,7.4,5.1,12.3c0,1.7-0.2,3.1-0.6,4.1c-0.4,1-1.1,1.8-1.9,2.2c-0.9,0.4-1.7,0.7-2.4,0.8c-0.7,0.1-1.8,0.1-3.1,0.1h-22v4
		c0,4,1.4,7.2,4.3,9.6c2.9,2.4,6.5,3.6,11.1,3.6c2.3,0,4.2-0.3,5.8-1c1.6-0.6,2.8-1.3,3.6-1.9c0.8-0.6,1.5-1,1.9-1
		c0.6,0,1.1,0.3,1.5,0.8c0.4,0.5,0.7,1,0.7,1.5c0,1.2-1.3,2.5-3.9,3.8s-5.9,2-9.7,2c-5.8,0-10.6-1.6-14.3-4.9
		C146.8,269.3,144.9,265.1,144.9,259.8z M149.6,252h20.3c2.2,0,3.6-0.2,4.3-0.7c0.7-0.4,1-1.4,1-2.8c0-3.4-1.2-6.4-3.6-9.1
		c-2.4-2.7-5.5-4-9.1-4c-3.6,0-6.6,1.2-9.1,3.7c-2.5,2.5-3.8,5.4-3.8,8.9V252z"/>
</g>
</svg>
